# Blender v2.82 (sub 7) OBJ File: 'map1-3.blend'
# www.blender.org
mtllib map1-3ground.mtl
o Cube_Cube.002
v -6.000000 -6.000000 6.000000
v -6.000000 6.000000 6.000000
v -6.000000 -6.000000 -6.000000
v -6.000000 6.000000 -6.000000
v 6.000000 -6.000000 6.000000
v 6.000000 6.000000 6.000000
v 6.000000 -6.000000 -6.000000
v 6.000000 6.000000 -6.000000
v 4.000000 -6.000000 -6.000000
v 2.000000 -6.000000 -6.000000
v 0.000000 -6.000000 -6.000000
v -2.000000 -6.000000 -6.000000
v -4.000000 -6.000000 -6.000000
v -4.000000 6.000000 -6.000000
v -2.000000 6.000000 -6.000000
v 0.000000 6.000000 -6.000000
v 2.000000 6.000000 -6.000000
v 4.000000 6.000000 -6.000000
v -4.000000 -6.000000 6.000000
v -2.000000 -6.000000 6.000000
v 0.000000 -6.000000 6.000000
v 2.000000 -6.000000 6.000000
v 4.000000 -6.000000 6.000000
v 4.000000 6.000000 6.000000
v 2.000000 6.000000 6.000000
v 0.000000 6.000000 6.000000
v -2.000000 6.000000 6.000000
v -4.000000 6.000000 6.000000
v -6.000000 -6.000000 -4.000000
v -6.000000 -6.000000 -2.000000
v -6.000000 -6.000000 0.000000
v -6.000000 -6.000000 2.000000
v -6.000000 -6.000000 4.000000
v -6.000000 6.000000 4.000000
v -6.000000 6.000000 2.000000
v -6.000000 6.000000 0.000000
v -6.000000 6.000000 -2.000000
v -6.000000 6.000000 -4.000000
v 6.000000 -6.000000 4.000000
v 6.000000 -6.000000 2.000000
v 6.000000 -6.000000 0.000000
v 6.000000 -6.000000 -2.000000
v 6.000000 -6.000000 -4.000000
v 6.000000 6.000000 -4.000000
v 6.000000 6.000000 -2.000000
v 6.000000 6.000000 0.000000
v 6.000000 6.000000 2.000000
v 6.000000 6.000000 4.000000
v 4.000000 6.000000 -4.000000
v 4.000000 6.000000 -2.000000
v 4.000000 6.000000 0.000000
v 4.000000 6.000000 2.000000
v 4.000000 6.000000 4.000000
v 2.000000 6.000000 -4.000000
v 2.000000 6.000000 -2.000000
v 2.000000 6.000000 0.000000
v 2.000000 6.000000 2.000000
v 2.000000 6.000000 4.000000
v 0.000000 6.000000 -4.000000
v 0.000000 6.000000 -2.000000
v 0.000000 6.000000 0.000000
v 0.000000 6.000000 2.000000
v 0.000000 6.000000 4.000000
v -2.000000 6.000000 -4.000000
v -2.000000 6.000000 -2.000000
v -2.000000 6.000000 0.000000
v -2.000000 6.000000 2.000000
v -2.000000 6.000000 4.000000
v -4.000000 6.000000 -4.000000
v -4.000000 6.000000 -2.000000
v -4.000000 6.000000 0.000000
v -4.000000 6.000000 2.000000
v -4.000000 6.000000 4.000000
v -4.000000 -6.000000 -4.000000
v -4.000000 -6.000000 -2.000000
v -4.000000 -6.000000 0.000000
v -4.000000 -6.000000 2.000000
v -4.000000 -6.000000 4.000000
v -2.000000 -6.000000 -4.000000
v -2.000000 -6.000000 -2.000000
v -2.000000 -6.000000 0.000000
v -2.000000 -6.000000 2.000000
v -2.000000 -6.000000 4.000000
v 0.000000 -6.000000 -4.000000
v 0.000000 -6.000000 -2.000000
v 0.000000 -6.000000 0.000000
v 0.000000 -6.000000 2.000000
v 0.000000 -6.000000 4.000000
v 2.000000 -6.000000 -4.000000
v 2.000000 -6.000000 -2.000000
v 2.000000 -6.000000 0.000000
v 2.000000 -6.000000 2.000000
v 2.000000 -6.000000 4.000000
v 4.000000 -6.000000 -4.000000
v 4.000000 -6.000000 -2.000000
v 4.000000 -6.000000 0.000000
v 4.000000 -6.000000 2.000000
v 4.000000 -6.000000 4.000000
v 2.000000 5.000000 0.000000
v 2.000000 5.000000 2.000000
v 0.000000 5.000000 0.000000
v 0.000000 5.000000 2.000000
v -2.000000 5.000000 -2.000000
v -2.000000 5.000000 0.000000
v -4.000000 5.000000 -2.000000
v -4.000000 5.000000 0.000000
v 2.000000 5.000000 -4.000000
v 2.000000 5.000000 -2.000000
v 0.000000 5.000000 -4.000000
v 0.000000 5.000000 -2.000000
vt 0.375000 0.208333
vt 0.625000 0.208333
vt 0.625000 0.250000
vt 0.375000 0.250000
vt 0.375000 0.458333
vt 0.625000 0.458333
vt 0.625000 0.500000
vt 0.375000 0.500000
vt 0.375000 0.708333
vt 0.625000 0.708333
vt 0.625000 0.750000
vt 0.375000 0.750000
vt 0.375000 0.958333
vt 0.625000 0.958333
vt 0.625000 1.000000
vt 0.375000 1.000000
vt 0.333333 0.708333
vt 0.333333 0.750000
vt 0.125000 0.708333
vt 0.166667 0.708333
vt 0.166667 0.750000
vt 0.125000 0.750000
vt 0.208333 0.708333
vt 0.208333 0.750000
vt 0.250000 0.708333
vt 0.250000 0.750000
vt 0.291667 0.708333
vt 0.291667 0.750000
vt 0.625000 0.791667
vt 0.375000 0.791667
vt 0.625000 0.833333
vt 0.375000 0.833333
vt 0.625000 0.875000
vt 0.375000 0.875000
vt 0.625000 0.916667
vt 0.375000 0.916667
vt 0.625000 0.291667
vt 0.375000 0.291667
vt 0.625000 0.333333
vt 0.375000 0.333333
vt 0.625000 0.375000
vt 0.375000 0.375000
vt 0.625000 0.416667
vt 0.375000 0.416667
vt 0.291667 0.500000
vt 0.333333 0.500000
vt 0.333333 0.541667
vt 0.291667 0.541667
vt 0.333333 0.583333
vt 0.291667 0.583333
vt 0.333333 0.625000
vt 0.291667 0.625000
vt 0.333333 0.666667
vt 0.291667 0.666667
vt 0.250000 0.500000
vt 0.250000 0.541667
vt 0.250000 0.583333
vt 0.250000 0.625000
vt 0.250000 0.666667
vt 0.208333 0.500000
vt 0.208333 0.541667
vt 0.208333 0.583333
vt 0.208333 0.625000
vt 0.208333 0.666667
vt 0.166667 0.500000
vt 0.166667 0.541667
vt 0.166667 0.583333
vt 0.166667 0.625000
vt 0.166667 0.666667
vt 0.125000 0.500000
vt 0.125000 0.541667
vt 0.125000 0.583333
vt 0.125000 0.625000
vt 0.125000 0.666667
vt 0.791667 0.541667
vt 0.833333 0.541667
vt 0.833333 0.583333
vt 0.791667 0.583333
vt 0.833333 0.583333
vt 0.791667 0.583333
vt 0.791667 0.625000
vt 0.833333 0.625000
vt 0.833333 0.666667
vt 0.791667 0.666667
vt 0.833333 0.708333
vt 0.791667 0.708333
vt 0.750000 0.541667
vt 0.750000 0.583333
vt 0.750000 0.625000
vt 0.750000 0.666667
vt 0.750000 0.708333
vt 0.708333 0.583333
vt 0.708333 0.583333
vt 0.750000 0.583333
vt 0.708333 0.625000
vt 0.750000 0.625000
vt 0.708333 0.625000
vt 0.708333 0.666667
vt 0.708333 0.708333
vt 0.666667 0.541667
vt 0.708333 0.541667
vt 0.666667 0.583333
vt 0.666667 0.625000
vt 0.666667 0.666667
vt 0.666667 0.708333
vt 0.375000 0.541667
vt 0.375000 0.583333
vt 0.375000 0.625000
vt 0.375000 0.666667
vt 0.625000 0.541667
vt 0.625000 0.583333
vt 0.625000 0.625000
vt 0.625000 0.666667
vt 0.375000 0.000000
vt 0.625000 0.000000
vt 0.625000 0.041667
vt 0.375000 0.041667
vt 0.625000 0.083333
vt 0.375000 0.083333
vt 0.625000 0.125000
vt 0.375000 0.125000
vt 0.625000 0.166667
vt 0.375000 0.166667
vt 0.750000 0.666667
vt 0.708333 0.666667
vt 0.833333 0.625000
vt 0.791667 0.625000
vt 0.708333 0.541667
vt 0.750000 0.541667
vn -1.0000 0.0000 0.0000
vn 0.0000 0.0000 -1.0000
vn 1.0000 0.0000 0.0000
vn 0.0000 0.0000 1.0000
vn 0.0000 -1.0000 0.0000
vn 0.0000 1.0000 0.0000
usemtl None
s off
f 29/1/1 38/2/1 4/3/1 3/4/1
f 9/5/2 18/6/2 8/7/2 7/8/2
f 39/9/3 48/10/3 6/11/3 5/12/3
f 19/13/4 28/14/4 2/15/4 1/16/4
f 98/17/5 39/9/5 5/12/5 23/18/5
f 33/19/5 78/20/5 19/21/5 1/22/5
f 78/20/5 83/23/5 20/24/5 19/21/5
f 83/23/5 88/25/5 21/26/5 20/24/5
f 88/25/5 93/27/5 22/28/5 21/26/5
f 93/27/5 98/17/5 23/18/5 22/28/5
f 5/12/4 6/11/4 24/29/4 23/30/4
f 23/30/4 24/29/4 25/31/4 22/32/4
f 22/32/4 25/31/4 26/33/4 21/34/4
f 21/34/4 26/33/4 27/35/4 20/36/4
f 20/36/4 27/35/4 28/14/4 19/13/4
f 3/4/2 4/3/2 14/37/2 13/38/2
f 13/38/2 14/37/2 15/39/2 12/40/2
f 12/40/2 15/39/2 16/41/2 11/42/2
f 11/42/2 16/41/2 17/43/2 10/44/2
f 10/44/2 17/43/2 18/6/2 9/5/2
f 10/45/5 9/46/5 94/47/5 89/48/5
f 89/48/5 94/47/5 95/49/5 90/50/5
f 90/50/5 95/49/5 96/51/5 91/52/5
f 91/52/5 96/51/5 97/53/5 92/54/5
f 92/54/5 97/53/5 98/17/5 93/27/5
f 11/55/5 10/45/5 89/48/5 84/56/5
f 84/56/5 89/48/5 90/50/5 85/57/5
f 85/57/5 90/50/5 91/52/5 86/58/5
f 86/58/5 91/52/5 92/54/5 87/59/5
f 87/59/5 92/54/5 93/27/5 88/25/5
f 12/60/5 11/55/5 84/56/5 79/61/5
f 79/61/5 84/56/5 85/57/5 80/62/5
f 80/62/5 85/57/5 86/58/5 81/63/5
f 81/63/5 86/58/5 87/59/5 82/64/5
f 82/64/5 87/59/5 88/25/5 83/23/5
f 13/65/5 12/60/5 79/61/5 74/66/5
f 74/66/5 79/61/5 80/62/5 75/67/5
f 75/67/5 80/62/5 81/63/5 76/68/5
f 76/68/5 81/63/5 82/64/5 77/69/5
f 77/69/5 82/64/5 83/23/5 78/20/5
f 3/70/5 13/65/5 74/66/5 29/71/5
f 29/71/5 74/66/5 75/67/5 30/72/5
f 30/72/5 75/67/5 76/68/5 31/73/5
f 31/73/5 76/68/5 77/69/5 32/74/5
f 32/74/5 77/69/5 78/20/5 33/19/5
f 64/75/6 69/76/6 70/77/6 65/78/6
f 65/78/4 70/77/4 105/79/4 103/80/4
f 66/81/6 71/82/6 72/83/6 67/84/6
f 67/84/6 72/83/6 73/85/6 68/86/6
f 59/87/6 64/75/6 65/78/6 60/88/6
f 60/88/6 65/78/6 66/81/6 61/89/6
f 61/89/6 66/81/6 67/84/6 62/90/6
f 62/90/6 67/84/6 68/86/6 63/91/6
f 60/88/2 55/92/2 108/93/2 110/94/2
f 55/92/6 60/88/6 61/89/6 56/95/6
f 56/95/4 61/89/4 101/96/4 99/97/4
f 57/98/6 62/90/6 63/91/6 58/99/6
f 49/100/6 54/101/6 55/92/6 50/102/6
f 51/103/6 56/95/6 57/98/6 52/104/6
f 52/104/6 57/98/6 58/99/6 53/105/6
f 9/46/5 7/8/5 43/106/5 94/47/5
f 94/47/5 43/106/5 42/107/5 95/49/5
f 95/49/5 42/107/5 41/108/5 96/51/5
f 96/51/5 41/108/5 40/109/5 97/53/5
f 97/53/5 40/109/5 39/9/5 98/17/5
f 7/8/3 8/7/3 44/110/3 43/106/3
f 43/106/3 44/110/3 45/111/3 42/107/3
f 42/107/3 45/111/3 46/112/3 41/108/3
f 41/108/3 46/112/3 47/113/3 40/109/3
f 40/109/3 47/113/3 48/10/3 39/9/3
f 1/114/1 2/115/1 34/116/1 33/117/1
f 33/117/1 34/116/1 35/118/1 32/119/1
f 32/119/1 35/118/1 36/120/1 31/121/1
f 31/121/1 36/120/1 37/122/1 30/123/1
f 30/123/1 37/122/1 38/2/1 29/1/1
f 99/97/6 101/96/6 102/124/6 100/125/6
f 57/98/1 56/95/1 99/97/1 100/125/1
f 61/89/3 62/90/3 102/124/3 101/96/3
f 62/90/2 57/98/2 100/125/2 102/124/2
f 103/80/6 105/79/6 106/126/6 104/127/6
f 66/81/1 65/78/1 103/80/1 104/127/1
f 70/77/3 71/82/3 106/126/3 105/79/3
f 71/82/2 66/81/2 104/127/2 106/126/2
f 107/128/6 109/129/6 110/94/6 108/93/6
f 54/101/4 59/87/4 109/129/4 107/128/4
f 55/92/1 54/101/1 107/128/1 108/93/1
f 59/87/3 60/88/3 110/94/3 109/129/3
f 24/29/6 53/105/6 58/99/6 25/31/6
