# Blender v2.82 (sub 7) OBJ File: 'wood.blend'
# www.blender.org
mtllib wood.mtl
o Cube
v 0.133597 1.000000 -0.133597
v 0.133597 -1.000000 -0.133597
v 0.133597 1.000000 0.133597
v 0.133597 -1.000000 0.133597
v -0.133597 1.000000 -0.133597
v -0.133597 -1.000000 -0.133597
v -0.133597 1.000000 0.133597
v -0.133597 -1.000000 0.133597
v -1.000000 -1.000000 -1.000000
v -1.000000 -1.000000 1.000000
v 1.000000 -1.000000 -1.000000
v 1.000000 1.000000 1.000000
v -1.000000 1.000000 1.000000
v 1.000000 1.000000 -1.000000
v 1.000000 -1.000000 1.000000
v -1.000000 1.000000 -1.000000
v -0.655465 -1.000000 -0.655465
v -0.655465 -1.000000 0.655465
v 0.655465 -1.000000 -0.655465
v 0.655465 1.000000 0.655465
v -0.655465 1.000000 0.655465
v 0.655465 1.000000 -0.655465
v 0.655465 -1.000000 0.655465
v -0.655465 1.000000 -0.655465
v -0.309710 -1.000000 -0.309710
v -0.309710 -1.000000 0.309710
v 0.309710 -1.000000 -0.309710
v 0.309710 1.000000 0.309710
v -0.309710 1.000000 0.309710
v 0.309710 1.000000 -0.309710
v 0.309710 -1.000000 0.309710
v -0.309710 1.000000 -0.309710
vt 0.478516 0.587302
vt 0.511916 0.587302
vt 0.511916 0.620701
vt 0.478516 0.620701
vt 0.010348 0.683454
vt 0.166503 0.683454
vt 0.166503 0.839609
vt 0.010348 0.839609
vt 0.010348 0.214988
vt 0.166503 0.214988
vt 0.166503 0.371143
vt 0.010348 0.371143
vt 0.478285 0.919081
vt 0.511684 0.919081
vt 0.511684 0.952480
vt 0.478285 0.952480
vt 0.010348 0.527298
vt 0.166503 0.527298
vt 0.674685 0.193638
vt 0.674685 0.262612
vt 0.656557 0.280739
vt 0.656557 0.175511
vt 0.743658 0.193638
vt 0.761785 0.175511
vt 0.670593 0.898295
vt 0.717414 0.898295
vt 0.729719 0.910600
vt 0.658288 0.910600
vt 0.670593 0.851474
vt 0.658288 0.839169
vt 0.743658 0.262612
vt 0.761785 0.280739
vt 0.717414 0.851474
vt 0.729719 0.839169
vt 0.863645 0.136914
vt 0.863645 0.214342
vt 0.820426 0.257561
vt 0.820426 0.093695
vt 0.941073 0.136914
vt 0.984292 0.093695
vt 0.863877 0.867401
vt 0.941304 0.867401
vt 0.984524 0.910620
vt 0.820657 0.910621
vt 0.863877 0.789973
vt 0.820657 0.746754
vt 0.941073 0.214342
vt 0.984292 0.257561
vt 0.941304 0.789973
vt 0.984524 0.746754
vt 0.077910 0.851885
vt 0.077910 0.885284
vt 0.055896 0.907299
vt 0.055896 0.829871
vt 0.111309 0.851885
vt 0.133323 0.829871
vt 0.083741 0.925182
vt 0.117140 0.925182
vt 0.139154 0.947196
vt 0.061727 0.947196
vt 0.083741 0.891783
vt 0.061727 0.869769
vt 0.111309 0.885284
vt 0.133324 0.907299
vt 0.117140 0.891783
vt 0.139154 0.869769
vn 0.0000 1.0000 0.0000
vn 0.0000 0.0000 1.0000
vn -1.0000 0.0000 0.0000
vn 0.0000 -1.0000 0.0000
vn 1.0000 0.0000 0.0000
vn 0.0000 0.0000 -1.0000
usemtl Material
s off
f 1/1/1 5/2/1 7/3/1 3/4/1
f 15/5/2 12/6/2 13/7/2 10/8/2
f 10/9/3 13/10/3 16/11/3 9/12/3
f 6/13/4 2/14/4 4/15/4 8/16/4
f 11/17/5 14/18/5 12/6/5 15/5/5
f 9/12/6 16/11/6 14/18/6 11/17/6
f 17/19/4 18/20/4 10/21/4 9/22/4
f 19/23/4 17/19/4 9/22/4 11/24/4
f 20/25/1 21/26/1 13/27/1 12/28/1
f 22/29/1 20/25/1 12/28/1 14/30/1
f 18/20/4 23/31/4 15/32/4 10/21/4
f 21/26/1 24/33/1 16/34/1 13/27/1
f 24/33/1 22/29/1 14/30/1 16/34/1
f 23/31/4 19/23/4 11/24/4 15/32/4
f 25/35/4 26/36/4 18/37/4 17/38/4
f 27/39/4 25/35/4 17/38/4 19/40/4
f 28/41/1 29/42/1 21/43/1 20/44/1
f 30/45/1 28/41/1 20/44/1 22/46/1
f 26/36/4 31/47/4 23/48/4 18/37/4
f 29/42/1 32/49/1 24/50/1 21/43/1
f 32/49/1 30/45/1 22/46/1 24/50/1
f 31/47/4 27/39/4 19/40/4 23/48/4
f 6/51/4 8/52/4 26/53/4 25/54/4
f 2/55/4 6/51/4 25/54/4 27/56/4
f 3/57/1 7/58/1 29/59/1 28/60/1
f 1/61/1 3/57/1 28/60/1 30/62/1
f 8/52/4 4/63/4 31/64/4 26/53/4
f 7/58/1 5/65/1 32/66/1 29/59/1
f 5/65/1 1/61/1 30/62/1 32/66/1
f 4/63/4 2/55/4 27/56/4 31/64/4
